<?xml version="1.0" encoding="UTF-8" standalone="no"?>
<svg
   xmlns:dc="http://purl.org/dc/elements/1.1/"
   xmlns:cc="http://creativecommons.org/ns#"
   xmlns:rdf="http://www.w3.org/1999/02/22-rdf-syntax-ns#"
   xmlns:svg="http://www.w3.org/2000/svg"
   xmlns="http://www.w3.org/2000/svg"
   width="142.02563mm"
   height="7.5655451mm"
   viewBox="0 0 142.02563 7.5655451"
   version="1.1"
   id="svg8"
   shape-rendering="crispEdges">
  <defs
     id="defs2" />
  <metadata
     id="metadata5">
    <rdf:RDF>
      <cc:Work
         rdf:about="">
        <dc:format>image/svg+xml</dc:format>
        <dc:type
           rdf:resource="http://purl.org/dc/dcmitype/StillImage" />
        <dc:title></dc:title>
      </cc:Work>
    </rdf:RDF>
  </metadata>
  <g
     id="layer1"
     transform="translate(-18.148243,-23.503993)">
    <g
       aria-label="KEENETIC techsupport"
       id="text12"
       style="font-style:normal;font-variant:normal;font-weight:normal;font-stretch:normal;font-size:8.46667px;line-height:1.25;font-family:'Persuasion BRK';-inkscape-font-specification:'Persuasion BRK';fill:#ffffff;stroke-width:0.186;stroke-miterlimit:4;stroke-dasharray:none">
      <path
         d="m 23.422845,26.238598 2.734734,-2.573868 h -2.1844 l -2.514601,2.463801 H 19.663644 V 23.66473 h -1.422401 v 6.350002 h 1.422401 v -2.463801 h 2.514601 c 1.049867,0 1.778,0.2286 2.167467,0.685801 0.2286,0.270933 0.338667,0.626533 0.338667,1.0668 v 0.7112 h 1.4224 v -0.7112 c 0,-0.770467 -0.237066,-1.464734 -0.677333,-1.989667 -0.465667,-0.541867 -1.143001,-0.905934 -2.006601,-1.075267 z"
         style="font-style:normal;font-variant:normal;font-weight:normal;font-stretch:normal;font-family:'KEENETIC Logo';-inkscape-font-specification:'KEENETIC Logo';letter-spacing:0.171979px;stroke:#ffffff;stroke-width:0.186;stroke-linejoin:bevel;stroke-miterlimit:4;stroke-dasharray:none;stroke-opacity:1;paint-order:stroke fill markers"
         id="path1254" />
      <path
         d="m 27.392522,23.66473 v 6.350002 h 7.865537 v -1.3462 h -6.443136 v -1.151467 h 6.417736 V 26.170864 H 28.814923 V 25.01093 h 6.443136 v -1.3462 z"
         style="font-style:normal;font-variant:normal;font-weight:normal;font-stretch:normal;font-family:'KEENETIC Logo';-inkscape-font-specification:'KEENETIC Logo';letter-spacing:0.171979px;stroke:#ffffff;stroke-width:0.186;stroke-linejoin:bevel;stroke-miterlimit:4;stroke-dasharray:none;stroke-opacity:1;paint-order:stroke fill markers"
         id="path1256" />
      <path
         d="m 36.543803,23.66473 v 6.350002 h 7.865536 v -1.3462 h -6.443136 v -1.151467 h 6.417736 V 26.170864 H 37.966203 V 25.01093 h 6.443136 v -1.3462 z"
         style="font-style:normal;font-variant:normal;font-weight:normal;font-stretch:normal;font-family:'KEENETIC Logo';-inkscape-font-specification:'KEENETIC Logo';letter-spacing:0.171979px;stroke:#ffffff;stroke-width:0.186;stroke-linejoin:bevel;stroke-miterlimit:4;stroke-dasharray:none;stroke-opacity:1;paint-order:stroke fill markers"
         id="path1258" />
      <path
         d="m 52.138218,23.66473 v 4.487335 L 47.117483,23.66473 h -1.422401 v 6.350002 h 1.422401 v -4.487335 l 5.020735,4.487335 h 1.422401 V 23.66473 Z"
         style="font-style:normal;font-variant:normal;font-weight:normal;font-stretch:normal;font-family:'KEENETIC Logo';-inkscape-font-specification:'KEENETIC Logo';letter-spacing:0.171979px;stroke:#ffffff;stroke-width:0.186;stroke-linejoin:bevel;stroke-miterlimit:4;stroke-dasharray:none;stroke-opacity:1;paint-order:stroke fill markers"
         id="path1260" />
      <path
         d="m 54.84636,23.66473 v 6.350002 h 7.865536 v -1.3462 H 56.26876 v -1.151467 h 6.417736 V 26.170864 H 56.26876 V 25.01093 h 6.443136 v -1.3462 z"
         style="font-style:normal;font-variant:normal;font-weight:normal;font-stretch:normal;font-family:'KEENETIC Logo';-inkscape-font-specification:'KEENETIC Logo';letter-spacing:0.171979px;stroke:#ffffff;stroke-width:0.186;stroke-linejoin:bevel;stroke-miterlimit:4;stroke-dasharray:none;stroke-opacity:1;paint-order:stroke fill markers"
         id="path1262" />
      <path
         d="m 63.997639,23.66473 v 1.3462 h 3.149601 v 5.003802 h 1.422401 V 25.01093 h 3.158068 v -1.3462 z"
         style="font-style:normal;font-variant:normal;font-weight:normal;font-stretch:normal;font-family:'KEENETIC Logo';-inkscape-font-specification:'KEENETIC Logo';letter-spacing:0.171979px;stroke:#ffffff;stroke-width:0.186;stroke-linejoin:bevel;stroke-miterlimit:4;stroke-dasharray:none;stroke-opacity:1;paint-order:stroke fill markers"
         id="path1264" />
      <path
         d="m 73.016629,23.66473 v 6.350002 h 1.4224 V 23.66473 Z"
         style="font-style:normal;font-variant:normal;font-weight:normal;font-stretch:normal;font-family:'KEENETIC Logo';-inkscape-font-specification:'KEENETIC Logo';letter-spacing:0.171979px;stroke:#ffffff;stroke-width:0.186;stroke-linejoin:bevel;stroke-miterlimit:4;stroke-dasharray:none;stroke-opacity:1;paint-order:stroke fill markers"
         id="path1266" />
      <path
         d="m 82.652492,27.881132 c -0.0085,0.01693 -0.0254,0.0254 -0.03387,0.04233 -0.448733,0.4826 -1.3208,0.8128 -2.531534,0.8128 -1.126067,0 -1.964268,-0.287867 -2.438401,-0.719667 -0.03387,-0.0254 -0.06773,-0.05927 -0.1016,-0.09313 -0.254,-0.270934 -0.381,-0.635 -0.381,-1.083734 0,-0.440267 0.127,-0.804334 0.381,-1.075267 0.03387,-0.03387 0.06773,-0.06773 0.1016,-0.1016 0.474133,-0.423334 1.312334,-0.7112 2.438401,-0.7112 1.210734,0 2.082801,0.3302 2.531534,0.8128 0.0085,0.01693 0.0254,0.03387 0.03387,0.04233 0,0 0.0085,0 1.312334,-0.635 -0.09313,-0.135467 -0.186267,-0.262467 -0.296334,-0.381 0,0 0,0 -0.0085,0 -0.9652,-0.973667 -2.3368,-1.193801 -3.572934,-1.193801 -1.642534,0 -2.844801,0.406401 -3.581402,1.193801 -0.499533,0.5334 -0.770467,1.2446 -0.770467,2.048934 0,0.8128 0.270934,1.524001 0.770467,2.057401 0.736601,0.7874 1.938868,1.185334 3.581402,1.185334 1.634067,0 2.844801,-0.397934 3.572934,-1.185334 0.127001,-0.127 0.220134,-0.254 0.304801,-0.381 z"
         style="font-style:normal;font-variant:normal;font-weight:normal;font-stretch:normal;font-family:'KEENETIC Logo';-inkscape-font-specification:'KEENETIC Logo';letter-spacing:0.171979px;stroke:#ffffff;stroke-width:0.186;stroke-linejoin:bevel;stroke-miterlimit:4;stroke-dasharray:none;stroke-opacity:1;paint-order:stroke fill markers"
         id="path1268" />
      <path
         d="M 94.914112,30.014732 H 91.38457 q -0.697795,0 -1.087262,-0.486833 -0.324555,-0.397581 -0.324555,-0.924983 v -3.529542 h 2.823633 v 1.054805 h 1.06292 v 0.705909 h -1.06292 v 2.474736 h 2.117726 z"
         style="font-size:8.11389px;stroke-width:0.186;stroke-miterlimit:4;stroke-dasharray:none"
         id="path1270" />
      <path
         d="m 98.295456,29.308824 h 2.117724 v 0.705908 h -3.529541 q -0.519289,0 -0.91687,-0.316441 -0.494947,-0.389467 -0.494947,-1.095375 v -1.06292 q 0,-0.511175 0.316442,-0.91687 0.389466,-0.494947 1.095375,-0.494947 h 3.172531 q 0.51117,0 0.91687,0.316442 0.49495,0.389467 0.49495,1.095375 0,0.705908 -0.48684,1.095375 -0.40569,0.316442 -0.92498,0.316442 h -1.760714 z m 0,-1.06292 h 1.760714 q 0.25153,0 0.41381,-0.10548 0.2921,-0.178506 0.2921,-0.600428 0,-0.405694 -0.2921,-0.592314 -0.18662,-0.113594 -0.41381,-0.113594 h -1.760714 z"
         style="font-size:8.11389px;stroke-width:0.186;stroke-miterlimit:4;stroke-dasharray:none"
         id="path1272" />
      <path
         d="m 108.10806,28.602916 q 0,0.697794 -0.48683,1.087261 -0.39758,0.324555 -0.92498,0.324555 h -3.17254 q -0.51928,0 -0.91687,-0.316441 -0.49494,-0.389467 -0.49494,-1.095375 v -1.06292 q 0,-0.511175 0.31644,-0.91687 0.38947,-0.494947 1.09537,-0.494947 h 3.17254 q 0.51117,0 0.91686,0.316442 0.49495,0.389467 0.49495,1.095375 h -0.70591 q 0,-0.405694 -0.2921,-0.592314 -0.18662,-0.113594 -0.4138,-0.113594 h -1.76072 v 2.474736 h 1.76072 q 0.25153,0 0.4138,-0.105481 0.2921,-0.178505 0.2921,-0.600427 z"
         style="font-size:8.11389px;stroke-width:0.186;stroke-miterlimit:4;stroke-dasharray:none"
         id="path1274" />
      <path
         d="m 114.74814,30.014732 h -0.70591 v -2.474736 q 0,-0.405694 -0.2921,-0.592314 -0.18662,-0.113594 -0.41381,-0.113594 h -1.76071 v 3.180644 h -2.82364 v -6.004278 h 2.82364 v 2.117725 h 1.76071 q 0.51118,0 0.91687,0.316442 0.49495,0.389467 0.49495,1.095375 z"
         style="font-size:8.11389px;stroke-width:0.186;stroke-miterlimit:4;stroke-dasharray:none"
         id="path1276" />
      <path
         d="m 121.38821,28.408182 v 0.194734 q 0,0.697794 -0.48683,1.087261 -0.39758,0.324555 -0.92498,0.324555 h -4.58435 v -0.705908 h 2.36114 l -2.36114,-1.582209 v -0.186619 q 0,-0.697795 0.48683,-1.087261 0.39758,-0.324556 0.92499,-0.324556 h 4.58434 v 0.705909 h -2.36114 z"
         style="font-size:8.11389px;stroke-width:0.186;stroke-miterlimit:4;stroke-dasharray:none"
         id="path1278" />
      <path
         d="m 128.02829,28.602916 q 0,0.697794 -0.48683,1.087261 -0.39758,0.324555 -0.92499,0.324555 h -3.17253 q -0.70591,0 -1.09537,-0.486833 -0.31645,-0.397581 -0.31645,-0.924983 v -2.474737 h 2.82364 v 3.180645 h 1.76071 q 0.25153,0 0.41381,-0.105481 0.2921,-0.178505 0.2921,-0.600427 v -2.474737 h 0.70591 z"
         style="font-size:8.11389px;stroke-width:0.186;stroke-miterlimit:4;stroke-dasharray:none"
         id="path1280" />
      <path
         d="m 134.66837,28.602916 q 0,0.519288 -0.31644,0.916869 -0.38947,0.494947 -1.09537,0.494947 h -1.76072 v 1.054806 h -2.82363 v -4.941359 h 4.58435 q 0.51117,0 0.91687,0.316442 0.49494,0.389467 0.49494,1.095375 z m -0.70591,-1.06292 q 0,-0.405694 -0.2921,-0.592314 -0.18662,-0.113594 -0.4138,-0.113594 h -1.76072 v 2.474736 h 1.76072 q 0.40569,0 0.59231,-0.2921 0.11359,-0.18662 0.11359,-0.413808 z"
         style="font-size:8.11389px;stroke-width:0.186;stroke-miterlimit:4;stroke-dasharray:none"
         id="path1282" />
      <path
         d="m 141.30845,28.602916 q 0,0.519288 -0.31644,0.916869 -0.38947,0.494947 -1.09538,0.494947 h -1.76071 v 1.054806 h -2.82364 v -4.941359 h 4.58435 q 0.51118,0 0.91687,0.316442 0.49495,0.389467 0.49495,1.095375 z m -0.70591,-1.06292 q 0,-0.405694 -0.2921,-0.592314 -0.18662,-0.113594 -0.41381,-0.113594 h -1.76071 v 2.474736 h 1.76071 q 0.4057,0 0.59232,-0.2921 0.11359,-0.18662 0.11359,-0.413808 z"
         style="font-size:8.11389px;stroke-width:0.186;stroke-miterlimit:4;stroke-dasharray:none"
         id="path1284" />
      <path
         d="m 147.94852,28.602916 q 0,0.519288 -0.31644,0.916869 -0.38946,0.494947 -1.09537,0.494947 h -3.17253 q -0.70591,0 -1.09538,-0.486833 -0.31644,-0.397581 -0.31644,-0.924983 v -1.06292 q 0,-0.697795 0.48683,-1.087261 0.39758,-0.324556 0.92499,-0.324556 h 3.17253 q 0.51117,0 0.91687,0.316442 0.49494,0.389467 0.49494,1.095375 z m -0.7059,-1.06292 q 0,-0.405694 -0.2921,-0.592314 -0.18662,-0.113594 -0.41381,-0.113594 h -1.76072 v 2.474736 h 1.76072 q 0.40569,0 0.59231,-0.2921 0.1136,-0.18662 0.1136,-0.413808 z"
         style="font-size:8.11389px;stroke-width:0.186;stroke-miterlimit:4;stroke-dasharray:none"
         id="path1286" />
      <path
         d="m 154.58861,27.897007 h -0.70591 v -0.357011 q 0,-0.405694 -0.2921,-0.592314 -0.18662,-0.113594 -0.41381,-0.113594 h -1.76071 v 3.180644 h -2.82364 v -2.474736 q 0,-0.511175 0.31644,-0.91687 0.38947,-0.494947 1.09538,-0.494947 h 3.17253 q 0.51118,0 0.91687,0.316442 0.49495,0.389467 0.49495,1.095375 z"
         style="font-size:8.11389px;stroke-width:0.186;stroke-miterlimit:4;stroke-dasharray:none"
         id="path1288" />
      <path
         d="m 160.17388,30.014732 h -3.52954 q -0.6978,0 -1.08727,-0.486833 -0.32455,-0.397581 -0.32455,-0.924983 v -3.529542 h 2.82363 v 1.054805 h 1.06292 v 0.705909 h -1.06292 v 2.474736 h 2.11773 z"
         style="font-size:8.11389px;stroke-width:0.186;stroke-miterlimit:4;stroke-dasharray:none"
         id="path1290" />
    </g>
  </g>
</svg>