<svg xmlns="http://www.w3.org/2000/svg" version="1.0" width="100%" height="100%" viewBox="0 0 300 47"><g fill="#FFFFFF"><g><g transform="translate(0, 0)"><g><g class="imagesvg"><g><rect fill="#FFFFFF" fill-opacity="0" stroke-width="2" x="0" y="0" width="44.382038154879915" height="46.51376395703063" /><svg x="0" y="0" width="44.382038154879915" height="46.51376395703063" style="overflow: visible;"><svg xmlns="http://www.w3.org/2000/svg" viewBox="0 0 55.79999923706055 58.47999954223633"><title>d22</title><g><path d="M25.56 0H0v41.45l14-14V13.11h11.56c8.35 0 15.62 6.35 15.62 16.37s-7.26 15.88-15.62 15.88H14L0 58.48h25.56c16.71 0 30.24-11.44 30.24-29S42.27 0 25.56 0z" fill="#FFFFFF"/></g></svg></svg></g></g></g></g><g transform="translate(53, 8.776435051141013)"><g fill="#FFFFFF" transform="scale(1)"><path d="M23.25-22.89L23.25-28.16L2.41-28.16L2.41-22.89ZM23.25-11.58L23.25-16.57L2.41-16.57L2.41-11.58ZM2.41 0L23.25 0L23.25-5.31L2.41-5.31Z" transform="translate(-2.413407821229051, 28.5586592178771)"/></g></g><g transform="translate(82, 8.776435051141013)"><g fill="#FFFFFF" transform="scale(1)"><path d="M10.38 0L15.93 0L5.79-28.16L0.08-28.16ZM17.74-4.18L27.19-28.16L21.00-28.16L15.16-11.22Z" transform="translate(-0.08044692737430169, 28.5586592178771)"/></g></g><g transform="translate(118, 8.776435051141013)"><g fill="#FFFFFF" transform="scale(1)"><path d="" transform="translate(0, 28.5586592178771)"/></g></g><g transform="translate(139, 8.776435051141013)"><g fill="#FFFFFF" transform="scale(1)"><path d="M12.47-24.17C16.13-24.17 18.66-22.12 18.66-18.91L24.09-18.91C24.09-25.22 19.63-28.56 12.43-28.56ZM1.61-21.00C1.61-10.74 18.66-14.44 18.66-7.80C18.66-5.51 16.29-4.02 12.91-4.02C9.01-4.02 6.72-6.03 6.72-9.29L1.21-9.29C1.21-2.61 5.91 0.40 13.03 0.40C19.55 0.40 24.09-2.86 24.09-7.80C24.09-18.02 6.88-14.92 6.88-20.92Z" transform="translate(-1.2067039106145254, 28.5586592178771)"/></g></g><g transform="translate(170, 8.776435051141013)"><g fill="#FFFFFF" transform="scale(1)"><path d="M0.28-28.16L0.28-22.89L22.65-22.89L22.65-28.16ZM8.77-19.31L8.77 0L14.20 0L14.20-19.31Z" transform="translate(-0.2815642458100559, 28.5586592178771)"/></g></g><g transform="translate(201, 8.776435051141013)"><g fill="#FFFFFF" transform="scale(1)"><path d="M17.22-28.16L10.34-28.16L0.24 0L6.11 0L13.60-22.32L14.00-22.32L22.00 0L28.28 0Z" transform="translate(-0.24134078212290505, 28.5586592178771)"/></g></g><g transform="translate(238, 8.776435051141013)"><g fill="#FFFFFF" transform="scale(1)"><path d="M21.76 0L27.07 0L27.07-28.16L21.88-28.16L21.88-8.77L21.68-8.77L8.08-28.16L2.49-28.16ZM2.74 0L8.00 0L8.00-13.80L2.74-21.32Z" transform="translate(-2.4938547486033524, 28.5586592178771)"/></g></g><g transform="translate(271, 8.776435051141013)"><g fill="#FFFFFF" transform="scale(1)"><path d="M2.45-28.16L2.45-22.89L12.31-22.89C17.09-22.89 20.67-21.04 20.67-14.08C20.67-7.08 17.14-5.31 12.35-5.31L2.45-5.31L2.45 0L14.08 0C22.65 0 26.39-6.11 26.39-14.08C26.39-22.08 22.65-28.16 14.08-28.16Z" transform="translate(-2.4536312849162014, 28.5586592178771)"/></g></g></g></g></svg>
